<?xml version="1.0" standalone="no"?><!DOCTYPE svg PUBLIC "-//W3C//DTD SVG 1.1//EN" "http://www.w3.org/Graphics/SVG/1.1/DTD/svg11.dtd"><svg t="1678024594223" class="icon" viewBox="0 0 1024 1024" version="1.1" xmlns="http://www.w3.org/2000/svg" p-id="5451" xmlns:xlink="http://www.w3.org/1999/xlink" width="200" height="200"><path d="M513 508.77m-389.59 0a389.59 389.59 0 1 0 779.18 0 389.59 389.59 0 1 0-779.18 0Z" fill="#FF0000" p-id="5452"></path><path d="M513 942.49c-58.55 0-115.35-11.47-168.82-34.09-51.65-21.84-98.03-53.12-137.86-92.95s-71.1-86.21-92.95-137.86c-22.62-53.48-34.09-110.28-34.09-168.82s11.47-115.35 34.09-168.82c21.85-51.65 53.12-98.03 92.95-137.86s86.21-71.1 137.86-92.95C397.65 86.52 454.45 75.06 513 75.06s115.35 11.47 168.82 34.09c51.65 21.85 98.03 53.12 137.86 92.95s71.1 86.21 92.95 137.86c22.62 53.48 34.09 110.28 34.09 168.82s-11.47 115.35-34.09 168.82c-21.84 51.65-53.12 98.03-92.95 137.86s-86.21 71.1-137.86 92.95c-53.47 22.61-110.27 34.08-168.82 34.08z m0-851.98c-230.63 0-418.26 187.63-418.26 418.26S282.37 927.03 513 927.03 931.26 739.4 931.26 508.77 743.63 90.51 513 90.51z" fill="#FF0000" p-id="5453"></path><path d="M400.53 396.3h224.95v224.95H400.53z" fill="#FFFFFF" p-id="5454"></path><path d="M633.2 628.97H392.8v-240.4h240.4v240.4z m-224.94-15.45h209.49V404.03H408.26v209.49z" fill="#FFFFFF" p-id="5455"></path><path d="M410.39 406.17H615.6v205.21H410.39z" fill="#FFFFFF" p-id="5456"></path><path d="M623.33 619.11H402.67V398.44h220.67v220.67z m-205.21-15.46h189.75V413.9H418.12v189.75z" fill="#FF0000" p-id="5457"></path><path d="M473.7 151.33h0.54c7.35 2.87 11.02 7.17 11.02 12.9v0.54c-2.51 24.01-3.76 37.72-3.76 41.12 12.36 7.17 18.9 13.53 19.62 19.08 0 1.26-5.29 4.48-15.86 9.68-4.48 1.44-6.72 6.99-6.72 16.66-0.36 3.59-0.54 8.24-0.54 13.98h-0.81l0.81 1.34c0 0.36-0.27 0.54-0.81 0.54 0.54 2.15 1.16 3.23 1.88 3.23 7.88-5.38 12.18-8.06 12.9-8.06 0 0.36 0.18 0.54 0.54 0.54-2.69 5.02-6.99 12.01-12.9 20.96-2.69 0-4.48 22.04-5.38 66.12 0 18.81-1.26 28.22-3.76 28.22h-1.08c-3.23 0-11.02-5.55-23.38-16.66-10.21-5.2-20.79-7.79-31.72-7.79h-6.18c-3.41 0-7.26-2.86-11.56-8.6v-2.42c31.72-32.79 50.44-50.35 56.18-52.68 5.01-2.33 7.53-8.06 7.53-17.2l1.08-20.43c-0.36-1.61-1.17-2.42-2.42-2.42-15.59 7.89-26.61 11.83-33.06 11.83-6.27 0-12.01-4.12-17.2-12.36v-1.34c5.38 0 20.07-7.97 44.08-23.92 7.35-3.4 11.02-6.81 11.02-10.21-1.26-3.04-1.88-6.36-1.88-9.95 0-7.72 3.93-25.28 11.82-52.7z m-52.68 194.33V347c10.57 1.44 21.95 6.54 34.14 15.32l0.81-1.34c1.08-22.75 1.61-38.52 1.61-47.31h-0.54c-1.26 0-10.04 7.98-26.34 23.92-6.45 5.03-9.68 7.71-9.68 8.07z m151.59-152.67c9.85 2.69 18.18 9.23 25 19.62 2.15 2.69 3.58 6.99 4.3 12.9-8.78 51.07-16.13 76.6-22.04 76.6l-3.49 0.54c-7.89 0-16.49-6.09-25.8-18.28-2.33-5.01-5.38-12.99-9.14-23.92h-0.54c-9.32 11.47-17.65 19.62-25 24.46h-0.81c8.24-28.31 12.36-43.01 12.36-44.08h-1.34c-10.93 4.48-18.01 6.72-21.23 6.72-2.87 0-5.91-2.86-9.14-8.6 11.83-2.69 23.56-8.78 35.21-18.28l4.3-8.06c1.79 0 3.49 0.63 5.11 1.88 8.42-5.73 18.37-11.65 29.83-17.74 0.18-1.61 0.99-2.86 2.42-3.76z m-71.49 111.55h0.54c3.76 0 7.43 7.17 11.02 21.5 0.89 0.36 1.52 0.54 1.88 0.54 9.31 0 23.56-4.48 42.74-13.44l19.62-6.72c10.39 3.94 17.56 9.86 21.5 17.74 0.36 0.72 0.54 1.52 0.54 2.42v3.76c0 5.91-3.67 12.46-11.02 19.62 8.96 6.99 13.44 12.1 13.44 15.32v0.54l-0.54 1.34c-4.12-0.36-7.17-0.54-9.14-0.54h-2.42c-12.9 0-26.43 0.36-40.59 1.08-3.41 0-6.81-3.04-10.21-9.14v-0.54c0-1.08 7.08-3.76 21.23-8.06 6.45 0 11.2-7.17 14.25-21.5 0-0.71-0.45-1.08-1.34-1.08-22.94 7.35-39.24 11.02-48.92 11.02-4.48 0-6.72 0.99-6.72 2.96v0.54l3.23 33.87-1.34 0.54h-0.54c-4.84 0-10.39-4.93-16.66-14.78-1.44-4.84-2.6-14.6-3.49-29.3h0.54l-0.54-1.34c0-0.36 0.18-0.54 0.54-0.54-0.36-0.71-0.54-1.34-0.54-1.88-0.02-15.96 0.96-23.93 2.94-23.93z m48.38-75.26l-4.84 26.34c2.69 13.8 6.9 24.01 12.63 30.64h0.81c6.09-9.14 10.75-26.07 13.98-50.8 1.25-5.91 1.88-11.29 1.88-16.13l-1.34-0.54h-0.54c-2.87 0.01-10.4 3.5-22.58 10.49zM556.75 648.39l1.08-0.54c12.36 5.02 18.55 13.89 18.55 26.61 0.54 6.45 1.7 9.68 3.49 9.68 4.84-1.25 8.06-2.59 9.68-4.03h2.42c5.38 0 12.1 5.38 20.16 16.13l1.07 2.96c-8.24 3.41-13.08 5.11-14.51 5.11-1.97 1.26-8.24 3.76-18.81 7.53-0.54 1.08-0.81 2.06-0.81 2.96 0.18 5.74 0.45 8.6 0.81 8.6 6.45 3.05 9.68 5.83 9.68 8.33 0 3.94-3.23 11.74-9.68 23.38v4.84c0 1.26 0.18 2.15 0.54 2.69l-0.54 1.88c0.36 13.98 0.89 25.53 1.61 34.67 0 0.36-0.18 0.54-0.54 0.54l0.54 2.15c0.54 14.69 1.08 22.04 1.61 22.04l-0.54 2.15c0.71 8.96 1.34 15.68 1.88 20.16 0 6.09-1.79 9.41-5.38 9.95h-1.08c-3.76 0-13.35-7.53-28.76-22.58-8.6-6.09-19.18-12.63-31.72-19.62-17.74 10.04-35.48 18.1-53.22 24.19-1.07 0-2.24 0.09-3.49 0.27v-0.27l24.19-21.23c-17.92-6.45-27.06-9.68-27.42-9.68 0-0.54-1.97-1.52-5.91-2.96-2.15 5.02-9.23 11.92-21.23 20.7-7.89 2.69-12.36 4.03-13.44 4.03h-3.49c-0.54 0-1.08-0.54-1.61-1.61 3.23-1.25 9.23-7.43 18.01-18.55 5.73-9.32 8.6-14.33 8.6-15.05-2.87-2.51-4.48-4.84-4.84-6.99 0.54-0.36 0.98-0.54 1.34-0.54 2.86 0 5.19 0.27 6.99 0.81 6.09-10.57 11.02-24.1 14.78-40.59 2.69-15.41 4.66-23.12 5.91-23.12 6.99 2.69 10.48 6.36 10.48 11.02v2.42c0 12.01-2.96 26.97-8.87 44.89-1.44 2.15-2.78 5.02-4.03 8.6 1.25 0 8.78 2.87 22.58 8.6a27.248 27.248 0 0 1-2.42-11.29v-7.53c0-1.25-0.18-2.6-0.54-4.03 0.36-1.25 0.54-2.6 0.54-4.03v-6.99c0-0.36 0.18-0.54 0.54-0.54 0-0.36-0.18-0.54-0.54-0.54l0.54-3.49v-0.54c0.54-15.41 0.81-23.92 0.81-25.53v-5.11c0-1.79-0.18-4.12-0.54-6.99 0.36-3.4 0.71-5.11 1.08-5.11 0-0.36-0.18-0.54-0.54-0.54 0-0.36 0.18-0.81 0.54-1.34 0-1.25-0.18-2.78-0.54-4.57 0.36-4.66 0.54-9.23 0.54-13.71v-1.34c0-0.89-0.81-1.43-2.42-1.61-10.39 2.51-22.31 7.08-35.75 13.71-2.69 1.44-4.03 3.05-4.03 4.84l4.03 29.83c0 0.36-0.18 0.54-0.54 0.54 1.08 15.41 1.61 23.48 1.61 24.19v0.8c0 0.36-0.18 0.54-0.54 0.54l0.54 1.08v4.57c0 0.36-0.18 0.54-0.54 0.54l0.54 0.81c-0.36 3.05-1.08 4.57-2.15 4.57h-0.54c-5.38 0-11.92-4.84-19.62-14.51-2.33-3.4-3.49-8.6-3.49-15.59l0.54-1.07-0.54-1.88 0.54-2.69c-0.36-1.79-0.54-3.4-0.54-4.84 0-0.36 0.18-0.54 0.54-0.54l-0.54-1.08c0-3.94-0.54-10.12-1.61-18.55 0-0.36 0.18-0.54 0.54-0.54l-2.96-34.67c1.25-6.45 2.78-11.2 4.57-14.25h0.54c5.38 2.33 10.03 7.89 13.98 16.66 1.97 6.45 3.49 9.68 4.57 9.68l17.74-10.75c13.26-6.09 20.25-9.76 20.97-11.02h2.69c8.78 0 17.29 7.08 25.53 21.23v1.34c0 0.72-0.36 1.07-1.08 1.07h-4.03v16.13c0 0.72-0.09 1.34-0.27 1.88 0.18 0.72 0.27 1.44 0.27 2.15v2.42c0 0.36-0.09 0.54-0.27 0.54l0.27 1.07c0 2.87-0.09 7.35-0.27 13.44 0.18 4.3 0.27 6.72 0.27 7.26-0.18 3.05-0.27 6.01-0.27 8.87l0.27 2.15c-0.54 1.26-0.81 2.6-0.81 4.03v2.96c0 16.31-3.59 29.57-10.75 39.78h-0.81c2.51 1.97 6.18 2.96 11.02 2.96 2.15-2.51 13.17-12.18 33.06-29.03 4.12-3.58 7.7-7.17 10.75-10.75 3.4-2.33 8.42-7.53 15.05-15.59 0-0.54 1.7-2.51 5.11-5.91-0.36-6.27-0.54-10.12-0.54-11.56h0.54c-0.36-0.54-0.72-2.6-1.08-6.18h0.54l-0.54-0.81v-5.64c0-0.71-0.36-1.08-1.08-1.08h-0.54c-13.8 4.12-28.22 7.71-43.27 10.75-4.48 0-9.68-3.58-15.59-10.75v-1.34c18.81-6.81 37.99-14.69 57.52-23.65 1.25-1.25 1.88-2.51 1.88-3.76v-6.99c0-0.71-0.18-1.34-0.54-1.88 0-0.36 0.18-0.54 0.54-0.54 0-10.93-1.34-18.99-4.03-24.19 0.01-1.44-0.17-3.59-0.53-6.46z m-37.62 163.96c2.15 1.97 10.66 7.17 25.53 15.59 11.83 9.32 19.53 14.87 23.12 16.67v-0.54c0-2.15-0.45-9.5-1.34-22.04v-1.08l-0.54-2.42h0.54l-0.54-1.08c-0.36-10.39-0.9-16.3-1.61-17.74l0.54-0.81c-0.36-0.71-0.54-1.25-0.54-1.61 0-0.71 0.18-1.08 0.54-1.08l-0.54-5.11v-10.48l-0.54-3.49c-0.54 0-7.08 5.91-19.62 17.74-1.79 1.97-8.78 7.17-20.97 15.59-2.33 1.26-3.68 1.89-4.03 1.89z" fill="#FFFFFF" p-id="5458"></path><path d="M261.84 388.73v-1.88c6.27 0 14.25 7.44 23.92 22.31 2.69 5.2 4.03 10.84 4.03 16.93-1.61 10.58-3.94 15.86-6.99 15.86v1.08h0.54l37.63-5.11c9.5 3.23 16.66 9.23 21.5 18.01l0.81 2.96c0 5.2-9.05 9.95-27.15 14.25-1.08 0.9-6.72 3.41-16.93 7.53v0.54c5.55 5.2 8.33 8.96 8.33 11.29-1.44 2.51-10.66 6.54-27.68 12.1v0.54c0.36 8.6 0.54 14.34 0.54 17.2 0.89 0.36 1.52 0.54 1.88 0.54 11.29-2.69 19.44-4.03 24.46-4.03h0.81c5.91 3.41 10.21 7.44 12.9 12.1v1.34c-0.54 1.61-8.42 4.48-23.65 8.6-10.75 5.02-16.4 8.6-16.93 10.75 0 0.36 0.18 0.9 0.54 1.61l-0.54 3.49c0 1.79 0.18 2.96 0.54 3.49-0.36 2.69-0.54 4.84-0.54 6.45v10.21c-0.18 3.76-1.34 5.64-3.49 5.64-5.02 0-10.84-5.28-17.47-15.86l-2.96-0.54h-0.54c-15.05 10.75-24.82 18.01-29.3 21.77l0.54 1.08 1.08-0.54h0.54l33.6-2.96 1.08 0.54 22.31-1.61 3.49 0.54h2.96c1.08 0 1.61-0.18 1.61-0.54l2.96 0.54h7.79c0.36 0 0.54 0.18 0.54 0.54l1.07-0.54 3.49 0.54 1.34-0.54c9.31 0 16.93 1.79 22.85 5.38 8.96 7.35 13.44 12.63 13.44 15.86l-1.88 1.08c-17.92-1.97-28.22-2.96-30.91-2.96h-0.81c-0.36 0-0.54-0.18-0.54-0.54-0.36 0-0.54 0.18-0.54 0.54-5.91-0.72-12.73-1.08-20.43-1.08-26.52 0-52.68 2.15-78.48 6.45v-0.81c-1.44 0.71-5.74 1.52-12.9 2.42-5.02 0-10.13-3.49-15.32-10.48v-1.08c2.15-2.15 8.78-5.73 19.89-10.75 9.85-6.81 24.9-15.41 45.16-25.8v-1.08c-5.91-1.25-11.2-1.88-15.86-1.88-6.09 0.9-12.19 1.88-18.28 2.96h-1.08c-4.3 0-9.14-4.03-14.51-12.1v-1.34c16.3-6.63 36.19-13.8 59.67-21.5 0.36-0.89 0.71-3.49 1.08-7.79-0.36-0.71-0.54-1.25-0.54-1.61 0.89-1.43 1.34-3.04 1.34-4.84l-0.81-2.96h-0.54c-15.23 3.94-25.36 5.91-30.37 5.91-10.57-4.48-15.86-9.14-15.86-13.98 15.59-5.2 26.16-8.96 31.72-11.29l31.45-10.48c1.25-0.89 5.2-1.88 11.83-2.96 0.71 0.36 1.34 0.54 1.88 0.54 11.11-4.66 19.26-11.83 24.46-21.5 0-0.89 0.18-1.7 0.54-2.42h-0.54c-10.58 1.26-15.86 2.24-15.86 2.96-0.36 0-0.54-0.18-0.54-0.54-19.18 3.76-42.83 10.21-70.96 19.35 0 0.54-1.52 0.9-4.57 1.08-0.36 0-0.54-0.18-0.54-0.54l-2.96 0.54h-2.42c-1.97 0-4.3-0.36-6.99-1.08-1.26 0-2.6 9.77-4.03 29.3l-2.42 1.61h-1.88c-4.84 0-10.84-5.28-18.01-15.86-1.08-3.4-1.88-5.11-2.42-5.11 0-13.8 2.33-26.88 6.99-39.24 3.76-5.19 7.7-7.79 11.83-7.79 2.15 0 8.6 2.96 19.35 8.87 5.38 1.61 9.68 2.42 12.9 2.42 12.9 0 21.5-5.28 25.8-15.86 1.43-3.23 3.13-12.45 5.11-27.68 0-11.13-0.72-17.31-2.15-18.56z m-51.07 67.19v3.49l0.54 1.34c0.89 0 7.16-1.43 18.81-4.3v-0.54c-10.93-2.69-16.58-4.21-16.93-4.57-1.62 0.19-2.42 1.72-2.42 4.58z m29.3 97.84l-2.96 0.81c0.54 0.54 5.82 2.69 15.86 6.45 2.69-1.08 4.39-2.51 5.11-4.3v-8.06h-0.54c-2.69-0.01-8.52 1.7-17.47 5.1z m40.31-11.56v2.42c2.33 0 4.75-1.79 7.26-5.38h-0.81c-4.3 0.9-6.45 1.89-6.45 2.96z m28.76 11.56v0.81c0.71-0.54 1.34-0.81 1.88-0.81l1.08 0.81c0.36 0 0.54-0.27 0.54-0.81l2.96 0.81h5.91c23.83 4.3 35.75 7.62 35.75 9.95-4.3 8.24-8.78 12.36-13.44 12.36l-2.96 0.54c-16.66 0-29.93-6.45-39.78-19.35v-1.88c0-1.09 2.69-1.89 8.06-2.43z" fill="#FFFFFF" p-id="5459"></path><path d="M651.1 494.06l1.08-0.81c5.55 0 11.91 5.82 19.08 17.47 2.33 6.27 6.54 23.83 12.63 52.68 2.86 7.89 5.64 11.83 8.33 11.83 9.68 0 32.61 4.21 68.81 12.63 8.42 1.08 21.14 2.42 38.17 4.03h3.5c22.58 0 41.48-0.81 56.71-2.42 0.71 0.54 1.7 0.81 2.96 0.81 1.43 0 2.42-0.27 2.96-0.81l2.42 0.81c2.86-0.54 5.28-0.81 7.26-0.81v0.81l1.08-0.81h3.23v0.81c-9.14 7.71-25.9 14.25-50.26 19.62-1.08 0-9.68 0.98-25.8 2.96-10.75 0-33.06-4.21-66.93-12.63-10.58-3.58-19.08-5.38-25.53-5.38l-1.34 0.81c-3.76-0.89-9.14-1.34-16.13-1.34h-23.92c-0.36 0-0.54-0.18-0.54-0.54-0.36 0-0.54 0.18-0.54 0.54-12.73 0-21.68-5.55-26.88-16.66l1.88-1.34h2.96c6.27 0 16.57-0.18 30.91-0.54v-0.54c-8.78-13.62-13.71-26.79-14.78-39.51-0.72-1.25-1.97-11.02-3.76-29.3 0-2.86-2.33-6.63-6.99-11.29l-0.57-1.08z m20.16-63.43h2.42c5.19 0 9.94 7.79 14.25 23.38-2.15 1.97-4.12 2.96-5.91 2.96-8.78-11.29-13.17-18.45-13.17-21.5v-2.42c-0.01-0.54 0.8-1.34 2.41-2.42z m116.65-24.46c9.85 5.56 14.78 10.66 14.78 15.32v8.33c0 4.84 1.7 7.79 5.11 8.87 10.93 8.24 16.66 14.88 17.2 19.89v1.88c0 1.79-6.99 3.49-20.96 5.11v28.22c0 0.36-0.27 0.54-0.81 0.54l0.81 1.34v4.3h1.08l8.33-3.76c7.17 0 15.95 6.63 26.34 19.89l0.54 3.76c-1.08 0.9-1.88 1.34-2.42 1.34-1.79 0-5.64-0.27-11.56-0.81-12.9 3.05-20.16 4.57-21.77 4.57l0.54 6.45c0 4.12 0.27 11.74 0.81 22.85l0.54 1.34c0 0.54-0.18 0.81-0.54 0.81l0.54 2.96c-0.36 7.89-0.54 14.51-0.54 19.89-0.54 4.3-2.24 6.45-5.11 6.45-4.66 0-6.99-8.78-6.99-26.34-0.54 0-1.44-10.39-2.69-31.18h-0.54c-23.83 5.38-36.65 9.23-38.44 11.56l1.34 25.53c-0.54 4.3-1.44 6.45-2.69 6.45h-0.54c-6.45-3.94-9.68-10.39-9.68-19.35-0.18 0-0.81-2.51-1.88-7.53h-1.34c-3.05 0-11.74 4.03-26.07 12.1-4.12 2.51-7.35 3.76-9.68 3.76-9.68-4.3-14.51-8.78-14.51-13.44v-1.08c10.93-13.26 19.89-21.41 26.88-24.46 1.08-1.61 7.43-6.45 19.08-14.51 1.61-1.43 2.42-5.28 2.42-11.56V486c0-2.15-0.81-3.4-2.42-3.76l-10.21 2.42c-6.27 0-13.53-5.28-21.77-15.86-0.36-0.71-0.54-1.61-0.54-2.69 1.43-1.25 4.39-2.51 8.87-3.76 2.51 0.9 4.39 1.79 5.64 2.69 15.41-4.66 23.12-8.96 23.12-12.9 2.69-19.53 4.84-29.3 6.45-29.3 3.58 0 7.79 4.03 12.63 12.1v7.53c0 0.54-0.18 0.81-0.54 0.81 0.54 2.15 1.16 3.23 1.88 3.23 1.08 0 7.7-2.6 19.89-7.79 5.01-1.43 7.53-8.42 7.53-20.96v-10.21c0.01-0.93 0.63-1.38 1.89-1.38z m-66.39 123.91v0.54c10.21-2.33 15.32-4.66 15.32-6.99l-0.54-1.08v-1.34c0-0.54 0.18-0.81 0.54-0.81-0.9-2.15-1.34-3.58-1.34-4.3h-1.08c-3.4 2.87-7.7 7.53-12.9 13.98z m30.1-21.77c0.18 6.81 0.81 10.21 1.88 10.21 3.76-1.79 15.86-5.82 36.29-12.09v-3.76c-14.88-11.11-24.82-21.14-29.83-30.1h-0.81c-4.66 0-6.99 5.38-6.99 16.13 0 1.96-0.18 8.5-0.54 19.61z m35.75-45.16l-25 6.99c6.99 12.54 15.77 21.23 26.34 26.07v-0.54l0.54-2.69c-0.54-14.87-1.44-22.75-2.69-23.65l0.81-3.23v-2.95z" fill="#FFFFFF" p-id="5460"></path></svg>